<?xml version="1.0" encoding="utf-8"?>
<!-- Generator: Adobe Illustrator 16.0.4, SVG Export Plug-In . SVG Version: 6.00 Build 0)  -->
<!DOCTYPE svg PUBLIC "-//W3C//DTD SVG 1.1//EN" "http://www.w3.org/Graphics/SVG/1.1/DTD/svg11.dtd">
<svg version="1.1" id="レイヤー_1" xmlns="http://www.w3.org/2000/svg" xmlns:xlink="http://www.w3.org/1999/xlink" x="0px"
	 y="0px" width="1792px" height="1792px" viewBox="0 0 1792 1792" enable-background="new 0 0 1792 1792" xml:space="preserve">
<path d="M1792,1536v-352c0-18-14-32-32-32h-352c-13,0-25,8-30,20s-2,25,7,35l100,100c-90,121-263,209-461,236V896h192
	c35,0,64-29,64-64V704c0-35-29-64-64-64h-192V477c76-44,128-126,128-221c0-141-115-256-256-256S640,115,640,256c0,95,52,177,128,221
	v163H576c-35,0-64,29-64,64v128c0,35,29,64,64,64h192v647c-198-27-371-115-461-236l100-100c9-10,12-23,7-35s-17-20-30-20H32
	c-18,0-32,14-32,32v352c0,13,8,25,20,30c4,1,8,2,12,2c8,0,17-3,23-9l93-93c157,189,439,310,748,310s591-121,748-310l93,93
	c7,6,15,9,23,9c4,0,8-1,12-2C1784,1561,1792,1549,1792,1536z M960,256c0,35-29,64-64,64s-64-29-64-64s29-64,64-64S960,221,960,256z"
	/>
</svg>
