<?xml version="1.0" encoding="utf-8"?>
<!-- Generator: Adobe Illustrator 16.0.4, SVG Export Plug-In . SVG Version: 6.00 Build 0)  -->
<!DOCTYPE svg PUBLIC "-//W3C//DTD SVG 1.1//EN" "http://www.w3.org/Graphics/SVG/1.1/DTD/svg11.dtd">
<svg version="1.1" id="レイヤー_1" xmlns="http://www.w3.org/2000/svg" xmlns:xlink="http://www.w3.org/1999/xlink" x="0px"
	 y="0px" width="1792px" height="1792px" viewBox="0 0 1792 1792" enable-background="new 0 0 1792 1792" xml:space="preserve">
<path d="M906.001,376.192c106.938,0,210.552,14.463,307.964,42.987c46.548,13.63,91.388,30.474,133.27,50.064
	c41.199,19.269,79.864,41.346,114.922,65.617c34.688,24.015,66.095,50.35,93.345,78.274c27.107,27.779,50.312,57.349,68.971,87.888
	c37.927,62.079,57.157,127.679,57.157,194.978c0,67.301-19.23,132.899-57.157,194.977c-18.659,30.541-41.863,60.109-68.971,87.889
	c-27.25,27.927-58.656,54.261-93.345,78.275c-35.058,24.27-73.723,46.347-114.922,65.617
	c-41.882,19.589-86.722,36.434-133.27,50.062c-97.412,28.526-201.025,42.987-307.964,42.987
	c-106.939,0-210.554-14.461-307.964-42.987c-46.549-13.629-91.387-30.474-133.271-50.062
	c-41.199-19.271-79.864-41.348-114.922-65.617c-34.689-24.015-66.094-50.349-93.344-78.275
	c-27.107-27.779-50.313-57.348-68.972-87.889c-37.926-62.077-57.157-127.676-57.157-194.977c0-67.299,19.231-132.898,57.157-194.978
	c18.658-30.539,41.864-60.109,68.972-87.888c27.25-27.924,58.655-54.26,93.344-78.274c35.058-24.271,73.723-46.348,114.922-65.617
	c41.883-19.59,86.722-36.434,133.271-50.064C695.447,390.655,799.062,376.192,906.001,376.192 M906.001,320
	C446.5,320,74,577.884,74,896c0,318.117,372.499,576,832,576C1365.5,1472,1738,1214.117,1738,896
	C1738,577.884,1365.5,320,906.001,320L906.001,320z"/>
<g>
	<path d="M627.549,808.598c0-16.398-10.357-32.365-29.776-32.365c-20.713,0-37.112,13.693-52.216,26.639l5.61-26.872h-62.141
		l-32.879,155.208c-18.747,16.524-42.749,26.211-68.529,26.211c-41.427,0-51.784-27.589-51.784-67.29
		c0-88.033,42.29-201.512,89.759-201.512c19.419,0,26.324,12.521,26.324,26.331c0,16.398-9.494,34.527-19.851,39.705
		c8.199,9.494,17.693,11.222,24.597,11.222c22.008,0,30.208-16.829,30.208-39.7c0-41.859-31.502-57.825-72.066-57.825
		c-113.062,0-150.605,146.291-150.605,224.398c0,77.676,30.639,106.157,94.506,106.157c26.422,0,62.598-10.181,90.417-34.441
		L443.284,992h62.141l34.522-163.983c10.789-9.925,18.556-16.398,31.502-16.398c12.946,0,0.863,28.481,25.029,28.481
		C617.624,840.1,627.549,823.702,627.549,808.598z"/>
	<path d="M1433.208,808.598c0-16.398-10.356-32.365-29.775-32.365c-20.714,0-37.112,13.693-52.216,26.639l5.61-26.872h-62.141
		l-13.134,62.07c-8.052,2.538-15.854,4.129-22.684,4.129c-1.294,0-3.021,0.029-4.746-0.834c0-45.311-18.125-69.031-55.236-69.031
		c-88.896,0-118.24,103.576-118.24,153.203c0,5.883,0.425,11.325,1.222,16.363c-6.782,6.754-14.845,10.828-23.229,10.828
		c-12.083,0-17.693-3.883-17.693-15.966c0-3.884,0.432-8.446,1.727-14.057L1070.29,793h25.892l3.452-17h-25.892l14.672-68.065
		l-63.867,8.572L1011.602,776H997.36l-3.452,17h14.24l-25.892,121.509c-2.157,10.356-3.452,19.974-3.452,28.172
		c0,0.374,0.016,0.796,0.02,1.165c-5.707,6.99-12.614,11.442-20.729,11.442c-12.083,0-17.692-6.457-17.692-18.54
		c0-3.884,0.432-8.308,1.726-13.918L973.199,776h-62.141L906,799.104v-3.021c0-12.514-10.201-22.008-34.798-22.008
		c-75.087,0-110.826,92.78-110.826,151.037c0,2.343,0.116,4.594,0.23,6.8c-16.535,15.733-34.565,26.429-60.15,26.429
		c-20.714,0-31.061-6.905-31.061-36.249c0-5.179,0.437-11.22,0.868-17.262c51.784-3.021,99.255-41.427,99.255-91.054
		c0-21.577-9.062-41.427-47.468-41.427c-88.464,0-116.513,104-116.513,153.626c0,48.763,26.755,68.613,67.319,68.613
		c38.852,0,68.209-18.392,90.755-42.589c8.112,30.959,30.751,42.589,54.236,42.589c30.639,0,50.921-19.851,64.298-39.701
		c2.589,25.893,18.125,39.701,42.291,39.701c15.473,0,37.793-4.193,58.247-27.597c7.078,19.088,23.147,27.597,42.295,27.597
		c16.154,0,41.639-4.569,63.95-30.802c11.341,21.13,33.447,29.939,60.763,29.939c53.079,0,96.232-50.059,103.137-129.892
		c8.448-1.389,16.675-3.341,24.514-5.789L1248.943,992h62.141l34.523-163.983c10.788-9.925,18.556-16.398,31.502-16.398
		c12.945,0,0.862,28.481,25.028,28.481C1423.283,840.1,1433.208,823.702,1433.208,808.598z M725.504,795.221
		c8.199,0,10.789,6.904,10.789,17.693c0,35.817-29.345,69.045-62.573,71.203C682.351,841.395,703.496,795.221,725.504,795.221z
		 M881.714,914.756c-5.178,25.028-23.303,37.975-35.817,37.975c-7.768,0-21.577-0.432-21.577-33.66
		c0-40.563,23.734-118.24,60.415-118.24c13.809,0,17.692,11.22,17.692,16.398L881.714,914.756z M1217.011,865.129
		c-6.904,50.921-28.913,89.759-50.058,89.759c-16.398,0-22.009-6.473-22.009-34.954c0-42.29,26.755-121.261,57.395-121.261
		c11.22,0,15.535,6.904,16.398,25.029c-7.769,3.453-13.378,11.22-13.378,23.303C1205.359,855.635,1207.948,862.971,1217.011,865.129
		z"/>
	<path d="M1542.815,762.855l-63.867,8.631c-13.377,42.29-28.912,85.012-53.078,127.734c-11.651,5.609-22.872,20.281-22.872,40.132
		c0,26.324,18.988,55.236,63.005,55.236c35.386,0,86.307-18.556,86.307-74.655C1552.31,891.453,1547.994,874.623,1542.815,762.855z
		 M1452.193,960.498c-18.987,0-26.323-9.925-26.323-30.207c2.157,4.315,7.336,5.609,11.651,5.609
		c11.22,0,18.987-10.788,18.987-21.145c0-7.337-4.315-12.515-9.926-15.104c14.241-27.618,26.324-53.51,34.955-81.56
		c4.315,66.456,8.199,79.834,8.199,102.273C1489.737,950.573,1471.181,960.498,1452.193,960.498z"/>
</g>
<g>
	<path d="M880.964,1171.481c0-6.537-1.569-10.721-6.537-10.721c-13.336,0-26.149,27.979-31.379,53.867
		C863.183,1213.32,880.964,1193.186,880.964,1171.481z"/>
	<path d="M787.089,1171.481c0-6.537-1.569-10.721-6.537-10.721c-13.336,0-26.149,27.979-31.379,53.867
		C769.308,1213.32,787.089,1193.186,787.089,1171.481z"/>
	<path d="M1605.559,712.506c-17.796-29.129-39.979-57.384-65.933-83.979c-26.262-26.913-56.576-52.326-90.102-75.536
		c-34.04-23.566-71.621-45.019-111.697-63.763c-40.864-19.113-84.637-35.555-130.104-48.868
		c-95.385-27.93-196.898-42.092-301.723-42.092c-104.826,0-206.34,14.163-301.723,42.092
		c-45.468,13.313-89.242,29.755-130.105,48.868c-40.077,18.744-77.657,40.197-111.697,63.763
		c-33.525,23.21-63.84,48.623-90.103,75.536c-25.953,26.594-48.135,54.85-65.931,83.979
		C170.661,771.074,152.517,832.811,152.517,896c0,63.191,18.144,124.926,53.926,183.495c17.796,29.129,39.979,57.384,65.931,83.979
		c26.262,26.911,56.578,52.325,90.103,75.536c34.04,23.565,71.62,45.019,111.697,63.763c40.863,19.112,84.637,35.554,130.105,48.869
		c95.383,27.929,196.897,42.091,301.723,42.091c104.824,0,206.338-14.162,301.723-42.091
		c45.467-13.315,89.239-29.757,130.104-48.869c40.076-18.744,77.657-40.197,111.697-63.763
		c33.525-23.211,63.84-48.625,90.102-75.536c25.953-26.595,48.137-54.85,65.933-83.979c35.781-58.569,53.924-120.304,53.924-183.495
		C1659.482,832.811,1641.34,771.074,1605.559,712.506z M657.127,1280l16.735-117.409L624.702,1280h-35.824l5.23-117.932
		L550.439,1280H529.52l66.418-179.64c-25.888,8.629-41.577,29.028-41.577,58.838c0,13.859,3.399,15.697,3.661,18.051
		c-16.997,0-27.979-6.523-27.979-23.782c0-33.471,43.407-69.527,83.154-69.527c6.798,0,13.597,1.365,19.873,3.719l-6.014,137.918
		L684.583,1088h37.654l-27.457,192H657.127z M1055.637,1281.834c-37.654,0-50.467-15.161-50.467-41.571
		c0-25.888,10.459-62.487,21.441-106.68l8.63-34.499c-28.503,7.584-46.284,28.8-46.284,60.179c0,13.859,3.399,15.761,3.661,18.114
		c-14.914,0-24.938-5.377-27.39-17.377h-11.833l-16.735,78.304c-0.784,3.139-1.308,6.134-1.308,9.01
		c0,5.491,2.093,9.414,9.152,9.414c1.831,0,4.707,0,6.799-0.784c-7.321,22.487-18.827,25.626-27.718,25.626
		c-16.939,0-24.915-10.977-26.012-25.876c-13.669,14.694-31.472,25.876-55.049,25.876c-19.63,0-33.913-7.685-38.874-25.824
		c-13.663,14.669-31.452,25.824-55.001,25.824c-24.58,0-40.792-12.029-40.792-41.577c0-30.071,16.997-93.091,70.603-93.091
		c23.272,0,28.764,12.029,28.764,25.104c0,30.071-28.764,53.344-60.143,55.174c-0.262,3.661-0.523,7.322-0.523,10.46
		c0,17.781,6.275,21.965,18.827,21.965c15.494,0,26.428-6.471,36.442-15.996c-0.057-1.178-0.096-2.375-0.096-3.614
		c0-30.071,16.997-93.09,70.603-93.09c23.272,0,28.764,12.032,28.764,25.106c0,30.07-28.764,53.348-60.143,55.178
		c-0.262,3.661-0.523,7.331-0.523,10.469c0,17.781,6.275,21.982,18.827,21.982c16.937,0,28.424-7.7,39.219-18.7
		c0.162-0.901,0.326-1.731,0.526-2.635L915.741,1160h-8.629l2.092-11h8.629l7.845-36.021l38.7-5.166c0,0-3.922,18.188-8.891,41.188
		h9.34c3.251-35,49.733-65.258,98.654-65.258c4.445,0,7.061,0.377,12.552,1.423c-24.318,90.214-35.301,125.489-35.301,147.454
		c0,14.905,4.968,23.483,18.043,23.483c22.227,0,31.901-5.593,50.467-91.099l17.521-81.004h36.87l-17.259,81.79
		C1129.639,1245.283,1114.473,1281.834,1055.637,1281.834z M1196.844,1281.596c-13.074,0-19.351-4.419-22.227-9.388l-13.598,63.856
		l-39.485,9.518L1165.203,1140h37.654l-4.184,19.401c7.583-6.537,17.52-11.454,30.595-11.454c17.781,0,31.901,10.211,31.901,41.328
		C1261.17,1224.578,1247.572,1281.596,1196.844,1281.596z M198.975,1024c-18.151-41.585-27.332-84.461-27.332-128
		c0-59.64,17.205-118.041,51.135-173.578c17.052-27.911,38.352-55.029,63.306-80.602c25.409-26.038,54.782-50.656,87.302-73.17
		c33.161-22.957,69.804-43.872,108.911-62.162c39.982-18.702,82.837-34.795,127.372-47.836
		C703.3,431.234,803,417.333,906.001,417.333c103,0,202.699,13.901,296.331,41.318c44.534,13.041,87.389,29.135,127.372,47.836
		c39.107,18.291,75.749,39.206,108.91,62.162c32.521,22.515,61.894,47.133,87.302,73.17c24.954,25.573,46.254,52.69,63.308,80.602
		c33.93,55.538,51.134,113.938,51.134,173.578c0,43.539-9.18,86.415-27.33,128H198.975z"/>
	<path d="M1212.271,1166.774c-5.753,0-13.074,4.445-18.043,12.813l-15.428,73.217c1.046,2.877,3.922,6.015,9.937,6.015
		c27.456,0,36.608-45.761,36.608-70.341C1225.346,1168.344,1216.979,1166.774,1212.271,1166.774z"/>
</g>
<polygon fill-rule="evenodd" clip-rule="evenodd" points="896.358,480.124 922.559,533.212 981.146,541.725 938.752,583.048 
	948.76,641.398 896.358,613.849 843.957,641.398 853.965,583.048 811.571,541.725 870.158,533.212 "/>
<polygon fill-rule="evenodd" clip-rule="evenodd" points="1106.358,515.43 1126.823,556.896 1172.584,563.546 1139.471,595.822 
	1147.287,641.398 1106.358,619.88 1065.43,641.398 1073.246,595.822 1040.133,563.546 1085.894,556.896 "/>
<polygon fill-rule="evenodd" clip-rule="evenodd" points="1288.358,552.183 1302.853,581.551 1335.262,586.26 1311.81,609.12 
	1317.346,641.398 1288.358,626.158 1259.371,641.398 1264.907,609.12 1241.455,586.26 1273.864,581.551 "/>
<polygon fill-rule="evenodd" clip-rule="evenodd" points="688.358,515.43 667.894,556.896 622.133,563.546 655.246,595.822 
	647.43,641.398 688.358,619.88 729.287,641.398 721.471,595.822 754.584,563.546 708.823,556.896 "/>
<polygon fill-rule="evenodd" clip-rule="evenodd" points="506.358,552.183 491.864,581.551 459.455,586.26 482.907,609.12 
	477.371,641.398 506.358,626.158 535.346,641.398 529.81,609.12 553.262,586.26 520.853,581.551 "/>
<rect x="256" y="704" fill-rule="evenodd" clip-rule="evenodd" width="32" height="32"/>
<rect x="512" y="704" fill-rule="evenodd" clip-rule="evenodd" width="32" height="32"/>
<rect x="576" y="704" fill-rule="evenodd" clip-rule="evenodd" width="32" height="32"/>
<rect x="640" y="704" fill-rule="evenodd" clip-rule="evenodd" width="32" height="32"/>
<rect x="704" y="704" fill-rule="evenodd" clip-rule="evenodd" width="32" height="32"/>
<rect x="768" y="704" fill-rule="evenodd" clip-rule="evenodd" width="32" height="32"/>
<rect x="832" y="704" fill-rule="evenodd" clip-rule="evenodd" width="32" height="32"/>
<rect x="896" y="704" fill-rule="evenodd" clip-rule="evenodd" width="32" height="32"/>
<rect x="960" y="704" fill-rule="evenodd" clip-rule="evenodd" width="32" height="32"/>
<rect x="1152" y="704" fill-rule="evenodd" clip-rule="evenodd" width="32" height="32"/>
<rect x="1216" y="704" fill-rule="evenodd" clip-rule="evenodd" width="32" height="32"/>
<rect x="1280" y="704" fill-rule="evenodd" clip-rule="evenodd" width="32" height="32"/>
<rect x="1344" y="704" fill-rule="evenodd" clip-rule="evenodd" width="32" height="32"/>
<rect x="1408" y="704" fill-rule="evenodd" clip-rule="evenodd" width="32" height="32"/>
<rect x="1472" y="704" fill-rule="evenodd" clip-rule="evenodd" width="32" height="32"/>
<rect x="1536" y="704" fill-rule="evenodd" clip-rule="evenodd" width="32" height="32"/>
</svg>
