<?xml version="1.0" encoding="utf-8"?>
<!-- Generator: Adobe Illustrator 16.0.4, SVG Export Plug-In . SVG Version: 6.00 Build 0)  -->
<!DOCTYPE svg PUBLIC "-//W3C//DTD SVG 1.1 Tiny//EN" "http://www.w3.org/Graphics/SVG/1.1/DTD/svg11-tiny.dtd">
<svg version="1.1" baseProfile="tiny" id="レイヤー_1"
	 xmlns="http://www.w3.org/2000/svg" xmlns:xlink="http://www.w3.org/1999/xlink" x="0px" y="0px" width="1536px" height="1792px"
	 viewBox="0 0 1536 1792" overflow="scroll" xml:space="preserve">
<path d="M1536,1376V416c0-159-129-288-288-288H288C129,128,0,257,0,416v960c0,159,129,288,288,288h960
	C1407,1664,1536,1535,1536,1376z M1330,699l-23,219h-175v635H870V918H739V699h131V568c0-179,74-285,284-285h175v219h-110
	c-81,0-87,31-87,88v109H1330z"/>
</svg>
