<?xml version="1.0" encoding="utf-8"?>
<!-- Generator: Adobe Illustrator 16.0.4, SVG Export Plug-In . SVG Version: 6.00 Build 0)  -->
<!DOCTYPE svg PUBLIC "-//W3C//DTD SVG 1.1 Tiny//EN" "http://www.w3.org/Graphics/SVG/1.1/DTD/svg11-tiny.dtd">
<svg version="1.1" baseProfile="tiny" id="レイヤー_1"
	 xmlns="http://www.w3.org/2000/svg" xmlns:xlink="http://www.w3.org/1999/xlink" x="0px" y="0px" width="1536px" height="1792px"
	 viewBox="0 0 1536 1792" overflow="visible" xml:space="preserve">
<path d="M1536,1376V416c0-159-129-288-288-288H288C129,128,0,257,0,416v960c0,159,129,288,288,288h960
	C1407,1664,1536,1535,1536,1376z M1280,610c-28,43-64,80-105,109c1,9,1,18,1,27c0,278-212,598-598,598c-119,0-229-35-322-94
	c16,2,33,3,50,3c99,0,189-34,261-90c-92-2-169-63-196-146c13,2,26,4,39,4c19,0,33-3,51-8c-96-19-173-104-173-206c0-1,0-2,0-2
	c32,15,65,25,100,26c-57-38-91-102-91-175c0-38,11-75,29-106c104,128,259,211,434,220c-4-15-5-32-5-48c0-116,94-210,210-210
	c60,0,115,25,153,66c48-9,93-27,134-51c-16,49-49,91-93,117C1202,638,1242,627,1280,610z"/>
</svg>
